<svg width="50" height="46" viewBox="0 0 50 46" fill="none" xmlns="http://www.w3.org/2000/svg">
<path d="M5.38086 33.1358C6.11668 33.1335 6.84428 32.9813 7.51901 32.6885C8.19374 32.3956 8.80136 31.9684 9.30459 31.4329C9.80643 31.9701 10.4138 32.3985 11.0888 32.6915C11.7639 32.9844 12.4922 33.1356 13.2283 33.1356C13.9645 33.1356 14.6928 32.9844 15.3678 32.6915C16.0429 32.3985 16.6502 31.9701 17.1521 31.4329C17.8365 32.1647 18.7127 32.6906 19.6814 32.951C20.6502 33.2115 21.6727 33.196 22.6331 32.9065C23.7103 33.8665 24.4344 34.4292 24.4969 34.4775C24.6377 34.5863 24.81 34.6466 24.9881 34.6493C25.1661 34.652 25.3403 34.597 25.4843 34.4926C25.5482 34.4457 26.3099 33.8894 27.4361 32.9266C28.3884 33.1999 29.398 33.205 30.3531 32.9414C31.3082 32.6778 32.1715 32.1557 32.8475 31.4329C33.3493 31.9701 33.9567 32.3985 34.6317 32.6915C35.3068 32.9844 36.035 33.1356 36.7712 33.1356C37.5074 33.1356 38.2357 32.9844 38.9107 32.6915C39.5857 32.3985 40.1931 31.9701 40.6949 31.4329C41.4316 32.2199 42.3886 32.7674 43.4416 33.0043C44.4945 33.2412 45.5946 33.1564 46.5986 32.761C47.6025 32.3656 48.4639 31.6779 49.0706 30.7874C49.6773 29.8969 50.0011 28.8449 50 27.7683C50 27.5506 49.9133 27.3419 49.759 27.188C49.6047 27.034 49.3954 26.9476 49.1772 26.9476C48.9589 26.9476 48.7496 27.034 48.5953 27.188C48.441 27.3419 48.3543 27.5506 48.3543 27.7683C48.3552 28.5857 48.0864 29.3807 47.5892 30.0306C47.0921 30.6804 46.3944 31.149 45.6037 31.364C44.813 31.579 43.9734 31.5285 43.2144 31.2202C42.4553 30.9119 41.8192 30.3631 41.404 29.6583C41.3312 29.5354 41.2276 29.4335 41.1034 29.3628C40.9791 29.292 40.8385 29.2548 40.6954 29.2548C40.5523 29.2548 40.4117 29.292 40.2874 29.3628C40.1632 29.4335 40.0596 29.5354 39.9868 29.6583C39.6581 30.2176 39.1883 30.6815 38.6243 31.0038C38.0603 31.3262 37.4215 31.4957 36.7714 31.4957C36.1214 31.4957 35.4826 31.3262 34.9186 31.0038C34.3545 30.6815 33.8848 30.2176 33.556 29.6583C33.4833 29.5354 33.3797 29.4335 33.2554 29.3628C33.1312 29.292 32.9906 29.2548 32.8475 29.2548C32.7044 29.2548 32.5638 29.292 32.4395 29.3628C32.3152 29.4335 32.2116 29.5354 32.1389 29.6583C31.818 30.1975 31.3663 30.6475 30.8255 30.9671C30.2846 31.2867 29.6719 31.4656 29.0436 31.4873C29.9873 30.6019 31.0372 29.5457 32.0942 28.3451C36.4628 23.3739 38.7709 18.3207 38.7709 13.7345C38.7709 11.9308 38.4148 10.1448 37.7227 8.47848C37.0307 6.81212 36.0164 5.29803 34.7378 4.02265C33.4591 2.74727 31.9411 1.73559 30.2705 1.04536C28.5998 0.355134 26.8092 -0.00012207 25.0009 -0.00012207C23.1926 -0.00012207 21.402 0.355134 19.7314 1.04536C18.0607 1.73559 16.5428 2.74727 15.2641 4.02265C13.9854 5.29803 12.9711 6.81212 12.2791 8.47848C11.5871 10.1448 11.231 11.9308 11.231 13.7345C11.231 18.1298 13.4756 22.9664 17.903 28.1097C19.0197 29.4069 20.1274 30.5484 21.1106 31.4958C21.0993 31.4958 21.088 31.4958 21.0767 31.4958C20.4271 31.4933 19.7892 31.3227 19.2254 31.0006C18.6617 30.6785 18.1914 30.216 17.8606 29.6583C17.7879 29.5354 17.6843 29.4335 17.56 29.3628C17.4358 29.292 17.2951 29.2548 17.1521 29.2548C17.009 29.2548 16.8684 29.292 16.7441 29.3628C16.6198 29.4335 16.5162 29.5354 16.4435 29.6583C16.1147 30.2176 15.645 30.6815 15.081 31.0038C14.5169 31.3262 13.8782 31.4957 13.2281 31.4957C12.578 31.4957 11.9393 31.3262 11.3752 31.0038C10.8112 30.6815 10.3415 30.2176 10.0127 29.6583C9.93996 29.5354 9.83634 29.4335 9.71208 29.3628C9.58782 29.292 9.44721 29.2548 9.30412 29.2548C9.16103 29.2548 9.02042 29.292 8.89616 29.3628C8.7719 29.4335 8.66828 29.5354 8.59554 29.6583C8.18029 30.3628 7.54416 30.9114 6.78529 31.2196C6.02642 31.5277 5.18698 31.5782 4.39648 31.3633C3.60598 31.1484 2.90834 30.68 2.41121 30.0303C1.91407 29.3807 1.64506 28.586 1.64567 27.7688C1.64567 27.5511 1.55898 27.3423 1.40467 27.1884C1.25035 27.0345 1.04106 26.948 0.822835 26.948C0.604606 26.948 0.395315 27.0345 0.241005 27.1884C0.0866935 27.3423 2.69045e-06 27.5511 2.69045e-06 27.7688C0.0016205 29.1917 0.56905 30.5559 1.5778 31.562C2.58656 32.5682 3.95426 33.1342 5.38086 33.1358ZM12.8757 13.7317C12.8757 10.5244 14.1531 7.44841 16.4268 5.18051C18.7006 2.9126 21.7844 1.6385 25 1.6385C28.2156 1.6385 31.2994 2.9126 33.5732 5.18051C35.8469 7.44841 37.1243 10.5244 37.1243 13.7317C37.1243 22.7361 27.3533 30.947 25.0141 32.784C22.6885 30.8598 12.8757 22.2357 12.8757 13.7317Z" fill="white"/>
<path d="M49.1772 33.5536C48.9589 33.5536 48.7496 33.6401 48.5953 33.794C48.441 33.9479 48.3543 34.1567 48.3543 34.3744C48.3551 35.1918 48.0861 35.9868 47.5888 36.6366C47.0916 37.2864 46.3937 37.7548 45.6029 37.9697C44.8122 38.1845 43.9725 38.1338 43.2136 37.8254C42.4546 37.5169 41.8185 36.9679 41.4035 36.263C41.3308 36.1401 41.2272 36.0382 41.1029 35.9674C40.9786 35.8967 40.838 35.8595 40.6949 35.8595C40.5519 35.8595 40.4112 35.8967 40.287 35.9674C40.1627 36.0382 40.0591 36.1401 39.9864 36.263C39.6576 36.8223 39.1879 37.2862 38.6238 37.6085C38.0598 37.9308 37.421 38.1004 36.771 38.1004C36.1209 38.1004 35.4821 37.9308 34.9181 37.6085C34.3541 37.2862 33.8843 36.8223 33.5556 36.263C33.4828 36.1401 33.3792 36.0382 33.255 35.9674C33.1307 35.8967 32.9901 35.8595 32.847 35.8595C32.7039 35.8595 32.5633 35.8967 32.439 35.9674C32.3148 36.0382 32.2112 36.1401 32.1384 36.263C31.8097 36.8223 31.3399 37.2862 30.7759 37.6085C30.2118 37.9308 29.5731 38.1004 28.923 38.1004C28.273 38.1004 27.6342 37.9308 27.0702 37.6085C26.5061 37.2862 26.0364 36.8223 25.7076 36.263C25.6349 36.1401 25.5313 36.0382 25.407 35.9674C25.2828 35.8967 25.1421 35.8595 24.9991 35.8595C24.856 35.8595 24.7154 35.8967 24.5911 35.9674C24.4668 36.0382 24.3632 36.1401 24.2905 36.263C23.9617 36.8223 23.492 37.2862 22.928 37.6085C22.3639 37.9308 21.7252 38.1004 21.0751 38.1004C20.425 38.1004 19.7863 37.9308 19.2222 37.6085C18.6582 37.2862 18.1885 36.8223 17.8597 36.263C17.787 36.1401 17.6833 36.0382 17.5591 35.9674C17.4348 35.8967 17.2942 35.8595 17.1511 35.8595C17.008 35.8595 16.8674 35.8967 16.7432 35.9674C16.6189 36.0382 16.5153 36.1401 16.4425 36.263C16.1138 36.8223 15.6441 37.2862 15.08 37.6085C14.516 37.9308 13.8772 38.1004 13.2271 38.1004C12.5771 38.1004 11.9383 37.9308 11.3743 37.6085C10.8102 37.2862 10.3405 36.8223 10.0118 36.263C9.93902 36.1401 9.8354 36.0382 9.71114 35.9674C9.58688 35.8967 9.44627 35.8595 9.30318 35.8595C9.16009 35.8595 9.01948 35.8967 8.89522 35.9674C8.77096 36.0382 8.66734 36.1401 8.5946 36.263C8.17919 36.9669 7.54317 37.5151 6.78459 37.8229C6.026 38.1308 5.18697 38.1812 4.39681 37.9664C3.60665 37.7517 2.90924 37.2837 2.41208 36.6346C1.91492 35.9854 1.64561 35.1912 1.64567 34.3744C1.64567 34.1567 1.55898 33.9479 1.40467 33.794C1.25035 33.6401 1.04106 33.5536 0.822835 33.5536C0.604607 33.5536 0.395316 33.6401 0.241005 33.794C0.0866937 33.9479 2.87662e-06 34.1567 2.87662e-06 34.3744C-0.00111352 35.451 0.322741 36.503 0.929411 37.3935C1.53608 38.284 2.39747 38.9717 3.40144 39.3671C4.40541 39.7625 5.50547 39.8473 6.55842 39.6104C7.61138 39.3735 8.56845 38.826 9.30506 38.039C9.8069 38.5762 10.4143 39.0046 11.0893 39.2976C11.7644 39.5905 12.4926 39.7416 13.2288 39.7416C13.965 39.7416 14.6932 39.5905 15.3683 39.2976C16.0433 39.0046 16.6507 38.5762 17.1525 38.039C17.6544 38.5762 18.2617 39.0046 18.9368 39.2976C19.6118 39.5905 20.3401 39.7416 21.0763 39.7416C21.8124 39.7416 22.5407 39.5905 23.2158 39.2976C23.8908 39.0046 24.4982 38.5762 25 38.039C25.5018 38.5762 26.1092 39.0046 26.7842 39.2976C27.4593 39.5905 28.1876 39.7416 28.9237 39.7416C29.6599 39.7416 30.3882 39.5905 31.0632 39.2976C31.7383 39.0046 32.3456 38.5762 32.8475 38.039C33.3493 38.5762 33.9567 39.0046 34.6317 39.2976C35.3068 39.5905 36.035 39.7416 36.7712 39.7416C37.5074 39.7416 38.2357 39.5905 38.9107 39.2976C39.5857 39.0046 40.1931 38.5762 40.6949 38.039C41.4316 38.826 42.3886 39.3735 43.4416 39.6104C44.4945 39.8473 45.5946 39.7625 46.5986 39.3671C47.6025 38.9717 48.4639 38.284 49.0706 37.3935C49.6773 36.503 50.0011 35.451 50 34.3744C50 34.1567 49.9133 33.9479 49.759 33.794C49.6047 33.6401 49.3954 33.5536 49.1772 33.5536Z" fill="white"/>
<path d="M49.1772 39.8127C48.9589 39.8127 48.7496 39.8991 48.5953 40.0531C48.441 40.207 48.3543 40.4157 48.3543 40.6334C48.3551 41.4509 48.0861 42.2458 47.5888 42.8956C47.0916 43.5454 46.3937 44.0139 45.6029 44.2287C44.8122 44.4436 43.9725 44.3929 43.2136 44.0844C42.4546 43.7759 41.8185 43.2269 41.4035 42.522C41.3308 42.3991 41.2272 42.2972 41.1029 42.2265C40.9786 42.1557 40.838 42.1185 40.6949 42.1185C40.5519 42.1185 40.4112 42.1557 40.287 42.2265C40.1627 42.2972 40.0591 42.3991 39.9864 42.522C39.6576 43.0813 39.1879 43.5452 38.6238 43.8675C38.0598 44.1899 37.421 44.3595 36.771 44.3595C36.1209 44.3595 35.4821 44.1899 34.9181 43.8675C34.3541 43.5452 33.8843 43.0813 33.5556 42.522C33.4828 42.3991 33.3792 42.2972 33.255 42.2265C33.1307 42.1557 32.9901 42.1185 32.847 42.1185C32.7039 42.1185 32.5633 42.1557 32.439 42.2265C32.3148 42.2972 32.2112 42.3991 32.1384 42.522C31.8097 43.0813 31.3399 43.5452 30.7759 43.8675C30.2118 44.1899 29.5731 44.3595 28.923 44.3595C28.273 44.3595 27.6342 44.1899 27.0702 43.8675C26.5061 43.5452 26.0364 43.0813 25.7076 42.522C25.6349 42.3991 25.5313 42.2972 25.407 42.2265C25.2828 42.1557 25.1421 42.1185 24.9991 42.1185C24.856 42.1185 24.7154 42.1557 24.5911 42.2265C24.4668 42.2972 24.3632 42.3991 24.2905 42.522C23.9617 43.0813 23.492 43.5452 22.928 43.8675C22.3639 44.1899 21.7252 44.3595 21.0751 44.3595C20.425 44.3595 19.7863 44.1899 19.2222 43.8675C18.6582 43.5452 18.1885 43.0813 17.8597 42.522C17.787 42.3991 17.6833 42.2972 17.5591 42.2265C17.4348 42.1557 17.2942 42.1185 17.1511 42.1185C17.008 42.1185 16.8674 42.1557 16.7432 42.2265C16.6189 42.2972 16.5153 42.3991 16.4425 42.522C16.1138 43.0813 15.6441 43.5452 15.08 43.8675C14.516 44.1899 13.8772 44.3595 13.2271 44.3595C12.5771 44.3595 11.9383 44.1899 11.3743 43.8675C10.8102 43.5452 10.3405 43.0813 10.0118 42.522C9.93902 42.3991 9.8354 42.2972 9.71114 42.2265C9.58688 42.1557 9.44627 42.1185 9.30318 42.1185C9.16009 42.1185 9.01948 42.1557 8.89522 42.2265C8.77096 42.2972 8.66734 42.3991 8.5946 42.522C8.17915 43.226 7.54305 43.7742 6.78437 44.082C6.02569 44.3899 5.18656 44.4402 4.39635 44.2253C3.60615 44.0105 2.90874 43.5423 2.41165 42.893C1.91457 42.2437 1.64541 41.4494 1.64567 40.6325C1.64567 40.4148 1.55898 40.206 1.40467 40.0521C1.25035 39.8982 1.04106 39.8117 0.822835 39.8117C0.604607 39.8117 0.395316 39.8982 0.241005 40.0521C0.0866937 40.206 2.87662e-06 40.4148 2.87662e-06 40.6325C-0.00111352 41.7091 0.322741 42.7611 0.929411 43.6516C1.53608 44.5421 2.39747 45.2298 3.40144 45.6252C4.40541 46.0206 5.50547 46.1054 6.55842 45.8685C7.61138 45.6316 8.56845 45.0841 9.30506 44.2971C9.8069 44.8343 10.4143 45.2627 11.0893 45.5556C11.7644 45.8486 12.4926 45.9997 13.2288 45.9997C13.965 45.9997 14.6932 45.8486 15.3683 45.5556C16.0433 45.2627 16.6507 44.8343 17.1525 44.2971C17.6544 44.8343 18.2617 45.2627 18.9368 45.5556C19.6118 45.8486 20.3401 45.9997 21.0763 45.9997C21.8124 45.9997 22.5407 45.8486 23.2158 45.5556C23.8908 45.2627 24.4982 44.8343 25 44.2971C25.5018 44.8343 26.1092 45.2627 26.7842 45.5556C27.4593 45.8486 28.1876 45.9997 28.9237 45.9997C29.6599 45.9997 30.3882 45.8486 31.0632 45.5556C31.7383 45.2627 32.3456 44.8343 32.8475 44.2971C33.3493 44.8343 33.9567 45.2627 34.6317 45.5556C35.3068 45.8486 36.035 45.9997 36.7712 45.9997C37.5074 45.9997 38.2357 45.8486 38.9107 45.5556C39.5857 45.2627 40.1931 44.8343 40.6949 44.2971C41.4316 45.0841 42.3886 45.6316 43.4416 45.8685C44.4945 46.1054 45.5946 46.0206 46.5986 45.6252C47.6025 45.2298 48.4639 44.5421 49.0706 43.6516C49.6773 42.7611 50.0011 41.7091 50 40.6325C49.9997 40.415 49.9129 40.2064 49.7587 40.0527C49.6044 39.899 49.3952 39.8127 49.1772 39.8127Z" fill="white"/>
<path d="M32.0999 13.7317C32.0997 12.3311 31.6831 10.962 30.9029 9.79758C30.1226 8.63314 29.0137 7.72561 27.7164 7.18977C26.419 6.65392 24.9915 6.51381 23.6143 6.78716C22.2371 7.06052 20.9721 7.73505 19.9793 8.72547C18.9865 9.71589 18.3104 10.9777 18.0365 12.3514C17.7626 13.7251 17.9033 15.1489 18.4407 16.4428C18.9781 17.7368 19.8881 18.8427 21.0556 19.6208C22.2232 20.3989 23.5958 20.8142 25 20.8142C26.8824 20.8117 28.687 20.0647 30.018 18.737C31.3489 17.4093 32.0976 15.6092 32.0999 13.7317ZM19.5434 13.7317C19.5436 12.6558 19.8636 11.6042 20.4629 10.7098C21.0623 9.8153 21.914 9.11816 22.9105 8.70648C23.907 8.2948 25.0035 8.18706 26.0614 8.39689C27.1193 8.60672 28.0911 9.12469 28.8539 9.88531C29.6166 10.6459 30.1362 11.6151 30.3468 12.6702C30.5575 13.7253 30.4497 14.819 30.0373 15.8131C29.6248 16.8071 28.9261 17.6569 28.0295 18.2549C27.1328 18.8529 26.0786 19.1723 25 19.1728C23.5539 19.1708 22.1676 18.5969 21.1452 17.5769C20.1227 16.5569 19.5475 15.174 19.5458 13.7317H19.5434Z" fill="white"/>
<path d="M21.356 5.16571C21.5569 5.08057 21.7157 4.91932 21.7974 4.71743C21.8791 4.51554 21.877 4.28954 21.7917 4.08917C21.7063 3.88879 21.5446 3.73044 21.3422 3.64895C21.1398 3.56746 20.9132 3.56951 20.7123 3.65465C19.3256 4.24443 18.0749 5.11186 17.0378 6.20323C16.0007 7.29461 15.1993 8.5867 14.6831 9.99951C14.6444 10.1012 14.6264 10.2096 14.6301 10.3183C14.6338 10.4271 14.6591 10.534 14.7046 10.6329C14.75 10.7318 14.8148 10.8206 14.895 10.8943C14.9753 10.968 15.0694 11.0251 15.1719 11.0622C15.2745 11.0993 15.3834 11.1156 15.4923 11.1104C15.6013 11.1051 15.7081 11.0783 15.8065 11.0314C15.905 10.9846 15.9931 10.9187 16.0658 10.8376C16.1385 10.7565 16.1943 10.6618 16.23 10.559C16.6689 9.35801 17.3504 8.25966 18.2321 7.33196C19.1138 6.40426 20.1771 5.66697 21.356 5.16571Z" fill="white"/>
</svg>
