<svg width="38" height="50" viewBox="0 0 38 50" fill="none" xmlns="http://www.w3.org/2000/svg">
<path d="M18.0529 40.2721C17.6821 40.523 17.3319 40.7601 17.0408 41.0092C16.7302 41.275 16.618 41.7062 16.7597 42.0896C16.9014 42.4732 17.2669 42.7278 17.6757 42.7278H21.144C21.6834 42.7278 22.1206 42.2905 22.1206 41.7512C22.1206 41.2119 21.6834 40.7746 21.144 40.7746H20.6318C21.3863 40.0907 22.0028 39.2277 22.0028 38.0815C22.0028 36.6032 20.8002 35.4006 19.3219 35.4006C18.1106 35.4006 17.0457 36.2177 16.7323 37.3877C16.5927 37.9087 16.9019 38.4442 17.4228 38.5837C17.9436 38.7233 18.4792 38.4142 18.6188 37.8932C18.704 37.5756 18.9931 37.3538 19.3219 37.3538C19.7231 37.3538 20.0497 37.6803 20.0497 38.0816C20.0497 38.9203 18.9889 39.6384 18.0529 40.2721Z" fill="url(#paint0_linear_22_5437)"/>
<path d="M9.86293 29.8279C9.32357 29.8279 8.88637 30.2652 8.88637 30.8044V37.6404C8.88637 38.1796 9.32357 38.6169 9.86293 38.6169C10.4023 38.6169 10.8395 38.1796 10.8395 37.6404V35.199H13.7694V37.6404C13.7694 38.1796 14.2066 38.6169 14.7459 38.6169C15.2853 38.6169 15.7225 38.1796 15.7225 37.6404V30.8044C15.7225 30.2652 15.2853 29.8279 14.7459 29.8279C14.2066 29.8279 13.7694 30.2652 13.7694 30.8044V33.2458H10.8395V30.8044C10.8395 30.2652 10.4023 29.8279 9.86293 29.8279Z" fill="url(#paint1_linear_22_5437)"/>
<path d="M29.1137 35.1989V33.2459C29.1137 31.3612 27.5804 29.8279 25.6956 29.8279C23.8109 29.8279 22.2776 31.3612 22.2776 33.2459V35.1989C22.2776 37.0836 23.8109 38.6169 25.6957 38.6169C27.5804 38.6169 29.1137 37.0836 29.1137 35.1989ZM24.2308 35.1989V33.2459C24.2308 32.4382 24.8879 31.781 25.6956 31.781C26.5033 31.781 27.1605 32.4381 27.1605 33.2459V35.1989C27.1605 36.0066 26.5033 36.6638 25.6955 36.6638C24.8877 36.6638 24.2308 36.0067 24.2308 35.1989Z" fill="url(#paint2_linear_22_5437)"/>
<path d="M37.5547 18.6493C37.5547 16.0317 35.9031 13.4149 34.9185 12.088C34.4932 11.5148 32.288 8.65503 30.6445 8.65503C29.0011 8.65503 26.7958 11.5148 26.3705 12.088C25.9149 12.702 25.3167 13.5924 24.8053 14.631C23.2287 13.0523 20.784 10.9374 19 10.9374C16.8256 10.9374 13.4105 14.1331 10.9394 17.1238C10.5959 17.5396 10.6545 18.1552 11.0702 18.4986C11.2523 18.649 11.4726 18.7224 11.6917 18.7224C11.9728 18.7224 12.2519 18.6016 12.445 18.3678C15.5665 14.5899 18.1573 12.8906 18.9999 12.8906C19.6218 12.8906 21.453 13.8967 24.0281 16.6338C23.8461 17.2905 23.7342 17.9697 23.7342 18.6492C23.7342 20.4891 24.4951 22.3022 25.8217 23.6238C27.0524 24.8498 28.6369 25.5552 30.3084 25.6322C31.8551 28.7519 32.6717 31.6964 32.6717 34.176C32.6717 37.8239 31.1566 41.4253 28.515 44.0569C25.931 46.631 22.573 48.0467 19.0464 48.0467C19.0129 48.0467 18.9793 48.0467 18.9459 48.0467C15.427 48.0466 12.0686 46.6309 9.48474 44.0569C6.84315 41.4254 5.32812 37.824 5.32812 34.176C5.32812 31.6714 6.16464 28.6777 7.74744 25.5186C7.98904 25.0364 7.79403 24.4497 7.3118 24.2081C6.82958 23.9664 6.24286 24.1614 6.00126 24.6437C4.25859 28.1219 3.375 31.3292 3.375 34.176C3.375 38.3395 5.09951 42.4452 8.10633 45.4406C11.0592 48.3822 14.9062 50 18.9383 49.9999H19.0539C23.0932 49.9999 26.9407 48.3821 29.8934 45.4406C32.9003 42.4452 34.6248 38.3395 34.6248 34.176C34.6248 31.5764 33.849 28.5695 32.373 25.4167C33.5219 25.1122 34.5854 24.502 35.467 23.6238C36.7938 22.3023 37.5547 20.4892 37.5547 18.6493ZM30.659 23.687C30.6529 23.687 30.6468 23.6869 30.6407 23.6869C30.6347 23.6869 30.6287 23.687 30.6225 23.687C29.3519 23.687 28.1371 23.1735 27.2002 22.2403C26.2388 21.2825 25.6874 19.9737 25.6874 18.6494C25.6874 17.2029 26.4609 15.3002 27.8096 13.4288C29.0624 11.6905 30.2456 10.762 30.6444 10.6192C31.0432 10.7621 32.2264 11.6906 33.4793 13.4288C34.828 15.3002 35.6014 17.2029 35.6014 18.6494C35.6014 19.9738 35.0501 21.2826 34.0886 22.2403C33.1517 23.1736 31.9371 23.687 30.659 23.687Z" fill="url(#paint3_linear_22_5437)"/>
<path d="M5.99561 13.4966C7.43125 13.4966 8.79658 12.9238 9.84209 11.8823C10.9032 10.8253 11.5119 9.37429 11.5119 7.90154C11.5119 5.82615 10.2156 3.76931 9.44287 2.72781C8.96797 2.08787 7.31484 -0.00012207 5.97852 -0.00012207C4.64238 -0.00012207 2.98926 2.08787 2.51436 2.72791C1.7417 3.76931 0.445312 5.82615 0.445312 7.90154C0.445312 9.37429 1.05391 10.8252 2.11514 11.8824C3.16074 12.9239 4.52588 13.4966 5.9541 13.4966H5.99561ZM2.39844 7.90154C2.39844 6.85798 2.95898 5.47009 3.93643 4.09343C4.79102 2.88982 5.62881 2.17332 5.97852 1.98503C6.32822 2.17332 7.16611 2.88972 8.0207 4.09334C8.99815 5.47009 9.55869 6.85808 9.55869 7.90154C9.55869 8.85876 9.15957 9.80535 8.46367 10.4986C7.78691 11.1727 6.91094 11.5434 5.98799 11.5434C5.98359 11.5434 5.9791 11.5434 5.97481 11.5434C5.97041 11.5434 5.96611 11.5434 5.96172 11.5434C5.04629 11.5434 4.17021 11.1727 3.49355 10.4986C2.79756 9.80535 2.39844 8.85876 2.39844 7.90154Z" fill="url(#paint4_linear_22_5437)"/>
<path d="M10.0561 21.2793C10.0561 20.74 9.61885 20.3027 9.07949 20.3027C8.54014 20.3027 8.10264 20.74 8.10264 21.2793C8.10264 21.8185 8.54014 22.2558 9.07949 22.2558C9.61885 22.2558 10.0561 21.8186 10.0561 21.2793Z" fill="url(#paint5_linear_22_5437)"/>
<defs>
<linearGradient id="paint0_linear_22_5437" x1="15.222" y1="27.989" x2="39.6355" y2="23.5952" gradientUnits="userSpaceOnUse">
<stop stop-color="#ACD454"/>
<stop offset="1" stop-color="#89B426"/>
</linearGradient>
<linearGradient id="paint1_linear_22_5437" x1="15.222" y1="27.989" x2="39.6355" y2="23.5952" gradientUnits="userSpaceOnUse">
<stop stop-color="#ACD454"/>
<stop offset="1" stop-color="#89B426"/>
</linearGradient>
<linearGradient id="paint2_linear_22_5437" x1="15.222" y1="27.989" x2="39.6355" y2="23.5952" gradientUnits="userSpaceOnUse">
<stop stop-color="#ACD454"/>
<stop offset="1" stop-color="#89B426"/>
</linearGradient>
<linearGradient id="paint3_linear_22_5437" x1="15.222" y1="27.989" x2="39.6355" y2="23.5952" gradientUnits="userSpaceOnUse">
<stop stop-color="#ACD454"/>
<stop offset="1" stop-color="#89B426"/>
</linearGradient>
<linearGradient id="paint4_linear_22_5437" x1="15.222" y1="27.989" x2="39.6355" y2="23.5952" gradientUnits="userSpaceOnUse">
<stop stop-color="#ACD454"/>
<stop offset="1" stop-color="#89B426"/>
</linearGradient>
<linearGradient id="paint5_linear_22_5437" x1="15.222" y1="27.989" x2="39.6355" y2="23.5952" gradientUnits="userSpaceOnUse">
<stop stop-color="#ACD454"/>
<stop offset="1" stop-color="#89B426"/>
</linearGradient>
</defs>
</svg>
