<svg width="55" height="55" viewBox="0 0 55 55" fill="none" xmlns="http://www.w3.org/2000/svg">
<path d="M54.9965 43.0545C54.8772 40.8492 51.3112 40.5646 47.5359 40.2634C46.1306 40.1513 44.8033 40.0454 43.75 39.8492C43.3029 39.7658 41.9559 39.6828 42.2082 38.9472C42.4127 38.351 43.6458 38.3519 44.1393 38.2671C45.4818 38.0361 47.1499 37.6815 47.4876 36.1297C47.8995 34.2372 45.9175 33.3937 44.4214 33.0208C42.699 32.5916 40.1811 32.3593 36.9316 32.3288C37.3682 30.102 36.994 27.7747 35.8078 25.7202L28.1975 12.5385C27.8965 12.0173 27.1052 12.0134 26.8021 12.5385L24.9117 15.8127C24.3943 16.7086 25.7892 17.5154 26.3071 16.6184L27.4999 14.5525L34.4125 26.5257C35.8553 29.0248 35.8553 32.0085 34.4125 34.5075C32.9698 37.0067 30.3855 38.4986 27.4999 38.4986C24.6142 38.4986 22.0301 37.0066 20.5872 34.5075C19.1444 32.0085 19.1444 29.0248 20.5872 26.5257L24.0744 20.4855C24.5918 19.5896 23.1969 18.7827 22.679 19.6799L19.1918 25.7201C18.0056 27.7747 17.6313 30.1019 18.0681 32.3287C14.8186 32.3592 12.3006 32.5914 10.5782 33.0207C9.08036 33.394 7.10231 34.2369 7.51201 36.1296C7.84803 37.6815 9.51939 38.0363 10.8603 38.267C11.2881 38.3405 12.7819 38.4324 12.8327 39.1028C12.8747 39.657 11.62 39.78 11.2496 39.8491C10.1964 40.0453 8.86906 40.1512 7.46378 40.2633C3.68846 40.5646 0.122612 40.849 0.00315987 43.0544C-0.0271329 43.6141 0.160854 44.1315 0.546711 44.5511C1.6958 45.8004 4.49433 46.1268 8.63725 46.2486C9.78311 46.2822 10.9636 46.2709 12.1051 46.26C14.0387 46.2415 15.8651 46.2241 17.1786 46.4281C17.6298 46.4982 18.9914 46.6793 18.7835 47.4062C18.6367 47.9196 17.44 48.0363 17.0647 48.1181C15.7349 48.4082 13.7254 48.8467 13.7254 50.9627C13.7254 52.4184 15.2716 53.4657 18.4523 54.1645C20.8886 54.6995 24.1409 54.9944 27.6102 54.9944C31.049 54.9944 34.253 54.7027 36.6322 54.1732C39.7558 53.4777 41.2742 52.4277 41.2742 50.9627C41.2742 48.8467 39.2645 48.4082 37.9349 48.1181C37.542 48.0324 36.3552 47.9203 36.2192 47.392C36.0341 46.6732 37.3779 46.4968 37.8209 46.428C39.1346 46.224 40.9609 46.2416 42.8944 46.2599C44.036 46.2708 45.2164 46.2822 46.3623 46.2485C47.3964 46.218 47.35 44.6051 46.315 44.6378C45.2005 44.6707 44.036 44.6593 42.9099 44.6488C40.9082 44.6293 39.0178 44.6114 37.5735 44.8359C36.3385 45.0277 34.805 45.5305 34.604 46.959C34.3473 48.7833 36.1613 49.3804 37.5914 49.6925C39.2757 50.06 39.6629 50.2974 39.6629 50.9628C39.6629 51.2689 38.9563 52.0051 36.282 52.6003C34.0144 53.1051 30.9347 53.3831 27.6101 53.3831C24.3023 53.3831 21.0904 53.0943 18.798 52.5907C16.0599 51.9892 15.3366 51.2628 15.3366 50.9628C15.3366 50.2974 15.7237 50.06 17.4081 49.6925C18.8382 49.3803 20.6521 48.7833 20.3955 46.959C20.1945 45.5306 18.6609 45.0277 17.4259 44.8359C15.9816 44.6116 14.0913 44.6295 12.0896 44.6488C10.9633 44.6594 9.79901 44.6707 8.68441 44.6378C7.03474 44.5894 2.6526 44.4607 1.73243 43.4602C1.63886 43.3585 1.60503 43.2691 1.61201 43.1414C1.61985 42.9954 1.95307 42.6754 3.15157 42.4023C4.35598 42.1276 6.00102 41.9964 7.59183 41.8694C9.20852 41.7404 10.7356 41.6186 11.9336 41.354C12.9423 41.1314 14.2541 40.705 14.4469 39.5283C14.7689 37.5631 12.6296 36.9362 11.1333 36.6788C10.6241 36.5913 9.00861 36.4828 9.07349 35.6404C9.12516 34.9693 10.4988 34.7009 10.9678 34.584C12.6457 34.1658 15.1918 33.9488 18.5338 33.9372C18.715 34.4061 18.9337 34.8661 19.1917 35.313C20.9258 38.3166 24.0316 40.1097 27.4998 40.1097C30.968 40.1097 34.0737 38.3166 35.8078 35.313C36.0659 34.8661 36.2846 34.4061 36.4658 33.9372C39.8078 33.9488 42.3539 34.1658 44.0318 34.584C44.5053 34.7021 45.8849 34.9707 45.9261 35.6404C45.9781 36.4856 44.3738 36.5915 43.8663 36.6788C42.5079 36.9125 40.8305 37.285 40.557 38.9004C40.2946 40.4499 41.8267 41.0804 43.066 41.354C44.2639 41.6186 45.791 41.7404 47.4077 41.8694C48.9985 41.9964 50.6436 42.1276 51.848 42.4023C53.0465 42.6754 53.3796 42.9953 53.3875 43.1414C53.4161 43.6687 52.3215 44.1152 50.3845 44.3663C49.358 44.4993 49.5633 46.0993 50.5917 45.9642C51.8308 45.8039 55.1223 45.3771 54.9965 43.0545Z" fill="url(#paint0_linear_22_5439)"/>
<path d="M33.0171 33.7018C33.2395 33.3165 33.1075 32.8237 32.7222 32.6013C32.3369 32.3788 31.8441 32.5107 31.6216 32.8961C30.7613 34.3863 29.2204 35.2759 27.4999 35.2759C27.0549 35.2759 26.6942 35.6365 26.6942 36.0815C26.6942 36.5266 27.0549 36.8872 27.4999 36.8872C29.803 36.8872 31.8655 35.6964 33.0171 33.7018Z" fill="url(#paint1_linear_22_5439)"/>
<path d="M36.7381 17.1286C38.4469 17.1286 39.9771 16.245 40.8314 14.7653C41.6858 13.2854 41.6858 11.5185 40.8314 10.0387L37.4358 4.15737C37.1348 3.63616 36.3435 3.6323 36.0404 4.15737L32.6448 10.0387C31.7904 11.5185 31.7904 13.2854 32.6448 14.7653C33.4991 16.245 35.0293 17.1286 36.7381 17.1286ZM34.0402 10.8444L36.7381 6.17153L39.436 10.8444C39.9991 11.8197 39.9991 12.9842 39.436 13.9596C38.8729 14.9349 37.8643 15.5172 36.7381 15.5172C35.6119 15.5172 34.6033 14.9349 34.0402 13.9596C33.4772 12.9842 33.4771 11.8197 34.0402 10.8444Z" fill="url(#paint2_linear_22_5439)"/>
<path d="M21.9139 9.82388C23.1955 9.82388 24.3432 9.1613 24.9839 8.05142C25.6247 6.94154 25.6247 5.61638 24.9839 4.5065L22.6117 0.397609C22.3107 -0.123602 21.5195 -0.127469 21.2163 0.397609L18.8441 4.5065C18.2034 5.61638 18.2034 6.94154 18.8441 8.05142C19.4847 9.1613 20.6324 9.82388 21.9139 9.82388ZM20.2394 5.31216L21.9139 2.41177L23.5884 5.31216C23.9379 5.91759 23.9379 6.64032 23.5884 7.24575C23.2389 7.85118 22.6129 8.21255 21.9139 8.21255C21.2149 8.21255 20.589 7.85118 20.2394 7.24575C19.8899 6.64032 19.8899 5.91748 20.2394 5.31216Z" fill="url(#paint3_linear_22_5439)"/>
<defs>
<linearGradient id="paint0_linear_22_5439" x1="21.9006" y1="30.7872" x2="57.1805" y2="22.2304" gradientUnits="userSpaceOnUse">
<stop stop-color="#ACD454"/>
<stop offset="1" stop-color="#89B426"/>
</linearGradient>
<linearGradient id="paint1_linear_22_5439" x1="21.9006" y1="30.7872" x2="57.1805" y2="22.2304" gradientUnits="userSpaceOnUse">
<stop stop-color="#ACD454"/>
<stop offset="1" stop-color="#89B426"/>
</linearGradient>
<linearGradient id="paint2_linear_22_5439" x1="21.9006" y1="30.7872" x2="57.1805" y2="22.2304" gradientUnits="userSpaceOnUse">
<stop stop-color="#ACD454"/>
<stop offset="1" stop-color="#89B426"/>
</linearGradient>
<linearGradient id="paint3_linear_22_5439" x1="21.9006" y1="30.7872" x2="57.1805" y2="22.2304" gradientUnits="userSpaceOnUse">
<stop stop-color="#ACD454"/>
<stop offset="1" stop-color="#89B426"/>
</linearGradient>
</defs>
</svg>
