<svg width="45" height="45" viewBox="0 0 45 45" fill="none" xmlns="http://www.w3.org/2000/svg">
<path d="M34.2482 16.4414L34.2513 16.5141L34.3214 16.5335C40.5107 18.2485 44.9 23.94 44.9 30.454C44.9 33.0543 44.2075 35.5828 42.8918 37.8044L42.8701 37.841L42.8814 37.882L44.7931 44.7929L37.8821 42.8813L37.8411 42.87L37.8045 42.8917C35.5829 44.2074 33.0544 44.8999 30.4541 44.8999C23.9398 44.8999 18.2479 40.5102 16.5333 34.3206L16.5139 34.2505L16.4412 34.2474C13.6327 34.1262 10.9117 33.3227 8.49973 31.8964L8.46314 31.8747L8.42217 31.8861L0.206599 34.1582L2.47904 25.9429L2.49037 25.902L2.46874 25.8654C0.917144 23.2414 0.1 20.2525 0.1 17.1825C0.1 7.76305 7.76317 0.0998779 17.1826 0.0998779C26.3535 0.0998779 33.8587 7.36469 34.2482 16.4414ZM3.74849 30.4936L3.70144 30.6637L3.87153 30.6166L8.84863 29.2398L9.30614 29.5323L9.30616 29.5323C11.6566 31.0344 14.38 31.8284 17.1826 31.8284C25.2586 31.8284 31.8285 25.2584 31.8285 17.1825C31.8285 9.10656 25.2586 2.5366 17.1826 2.5366C9.10668 2.5366 2.53672 9.10656 2.53672 17.1825C2.53672 19.9851 3.33074 22.7089 4.83281 25.059L4.83282 25.059L5.12534 25.5165L3.74849 30.4936ZM41.1285 41.2514L41.2986 41.2985L41.2515 41.1283L40.2329 37.4467L40.532 36.987L40.5321 36.987C41.7955 35.0422 42.4633 32.7828 42.4633 30.454C42.4633 25.2552 39.1021 20.6872 34.2824 19.0683L34.1654 19.029L34.1512 19.1517C33.2461 27.0002 27.0003 33.2459 19.1521 34.1508L19.0295 34.1649L19.0688 34.2819C20.6873 39.1019 25.2553 42.4632 30.4541 42.4632C32.7829 42.4632 35.0423 41.7953 36.9871 40.532L36.9871 40.5319L37.4468 40.2327L41.1285 41.2514ZM18.4335 19.0516L18.401 19.0813V19.1254V21.0815H15.9643V18.0083L19.0285 15.2035C19.0285 15.2035 19.0285 15.2035 19.0285 15.2035C19.6026 14.6782 19.9193 13.9604 19.9193 13.1835C19.9193 11.6743 18.6918 10.4468 17.1826 10.4468C15.7069 10.4468 14.5005 11.6204 14.4477 13.0835H12.0101C12.0636 10.2767 14.3633 8.01003 17.1826 8.01003C20.0353 8.01003 22.3561 10.3308 22.3561 13.1835C22.3561 14.6313 21.7427 16.0228 20.6736 17.0013L18.4335 19.0516ZM18.401 23.9182V26.355H15.9643V23.9182H18.401Z" fill="url(#paint0_linear_22_5431)" stroke="white" stroke-width="0.2"/>
<defs>
<linearGradient id="paint0_linear_22_5431" x1="17.9187" y1="25.1901" x2="46.7847" y2="18.1903" gradientUnits="userSpaceOnUse">
<stop stop-color="#ACD454"/>
<stop offset="1" stop-color="#89B426"/>
</linearGradient>
</defs>
</svg>
